# This file uses centimeters as units for non-parametric coordinates.

mtllib painting_small.mtl
g default
v -2.661653 2.810688 3.775235
v -2.437560 2.810688 3.775235
v -2.661653 4.110088 3.775235
v -2.437560 4.110088 3.775235
v -2.661653 4.110088 2.467812
v -2.437560 4.110088 2.467812
v -2.661653 2.810688 2.467812
v -2.437560 2.810688 2.467812
v -2.392616 2.680386 3.906341
v -2.455291 2.588707 3.998585
v -2.455291 4.332069 3.998585
v -2.392617 4.240389 3.906341
v -2.643921 2.588707 3.998585
v -2.706596 2.680386 3.906341
v -2.706596 4.240389 3.906341
v -2.643921 4.332069 3.998585
v -2.455291 4.332069 2.244460
v -2.392616 4.240390 2.336706
v -2.706596 4.240390 2.336706
v -2.643921 4.332069 2.244460
v -2.455291 2.588707 2.244460
v -2.392616 2.680386 2.336706
v -2.706596 2.680386 2.336706
v -2.643921 2.588707 2.244460
v -2.467101 2.832344 2.489602
v -2.467101 2.832344 3.753444
v -2.467101 4.088432 2.489602
v -2.467101 4.088432 3.753444
vt 0.625000 0.000000
vt 0.875000 0.000000
vt 0.875000 0.250000
vt 0.125000 0.000000
vt 0.125000 0.250000
vt 0.625000 1.000000
vt 0.562506 0.000000
vt 0.437494 1.000000
vt 0.375000 0.000000
vt 0.437494 0.000000
vt 0.562506 0.250000
vt 0.437494 0.250000
vt 0.562506 0.500000
vt 0.437494 0.500000
vt 0.562506 0.750000
vt 0.437494 0.750000
vt 0.562506 1.000000
vt 0.625000 0.250000
vt 0.625000 0.000000
vt 0.375000 0.000000
vt 0.375000 0.250000
vt 0.625000 0.500000
vt 0.625000 0.250000
vt 0.375000 0.250000
vt 0.375000 0.500000
vt 0.625000 0.750000
vt 0.625000 0.500000
vt 0.375000 0.500000
vt 0.375000 0.750000
vt 0.625000 1.000000
vt 0.625000 0.750000
vt 0.375000 1.000000
vt 0.375000 0.750000
vt 0.375000 1.000000
vt 0.625000 0.000000
vt 0.875000 0.000000
vt 0.875000 0.250000
vt 0.625000 0.250000
vn 1.000000 0.000000 0.000000
vn 1.000000 0.000000 0.000000
vn 1.000000 0.000000 0.000000
vn 1.000000 0.000000 0.000000
vn -0.998591 0.037645 0.037414
vn -0.998591 0.037645 -0.037414
vn -0.998591 -0.037645 -0.037414
vn -0.998591 -0.037645 0.037414
vn 0.825531 -0.564357 0.000000
vn 0.825531 -0.564357 0.000000
vn 0.825531 -0.564357 0.000000
vn 0.825531 -0.564357 0.000000
vn 0.827142 0.000000 0.561994
vn 0.827142 0.000000 0.561994
vn 0.827142 0.000000 0.561994
vn 0.827142 0.000000 0.561994
vn 0.825530 0.564358 0.000000
vn 0.825530 0.564358 0.000000
vn 0.825530 0.564358 0.000000
vn 0.825530 0.564358 0.000000
vn -0.825530 -0.564358 0.000000
vn -0.825530 -0.564358 0.000000
vn -0.825530 -0.564358 0.000000
vn -0.825530 -0.564358 0.000000
vn -0.827141 0.000000 0.561994
vn -0.827141 0.000000 0.561994
vn -0.827141 0.000000 0.561994
vn -0.827141 0.000000 0.561994
vn -0.825529 0.564359 0.000000
vn -0.825529 0.564359 0.000000
vn -0.825529 0.564359 0.000000
vn -0.825529 0.564359 0.000000
vn 0.827143 -0.000000 -0.561991
vn 0.827143 -0.000000 -0.561991
vn 0.827143 -0.000000 -0.561991
vn 0.827143 -0.000000 -0.561991
vn -0.827143 0.000000 -0.561992
vn -0.827143 0.000000 -0.561992
vn -0.827143 0.000000 -0.561992
vn -0.827143 0.000000 -0.561992
vn 0.000000 0.000000 1.000000
vn 0.000000 0.000000 1.000000
vn 0.000000 0.000000 1.000000
vn 0.000000 0.000000 1.000000
vn 0.000000 1.000000 0.000000
vn 0.000000 1.000000 0.000000
vn 0.000000 1.000000 0.000000
vn 0.000000 1.000000 0.000000
vn 0.000000 0.000000 -1.000000
vn 0.000000 0.000000 -1.000000
vn 0.000000 0.000000 -1.000000
vn 0.000000 0.000000 -1.000000
vn 0.000000 -1.000000 0.000000
vn 0.000000 -1.000000 0.000000
vn 0.000000 -1.000000 0.000000
vn 0.000000 -1.000000 0.000000
vn 0.971689 0.167577 -0.166549
vn 0.971689 -0.167577 -0.166549
vn 0.971689 -0.167577 -0.166549
vn 0.971689 0.167577 -0.166548
vn -0.971689 0.167576 -0.166547
vn -0.971689 -0.167576 -0.166547
vn 0.971689 -0.167576 0.166549
vn 0.971689 -0.167576 0.166549
vn -0.971689 -0.167576 0.166548
vn 0.971689 0.167577 0.166549
vn 0.971689 0.167577 0.166549
vn -0.971689 0.167576 0.166548
vn 0.591251 0.806488 0.000000
vn 0.591251 0.806488 0.000000
vn 0.591251 0.806488 0.000000
vn 0.591251 0.806488 0.000000
vn 0.593612 0.000000 0.804751
vn 0.593612 0.000000 0.804751
vn 0.593612 0.000000 0.804751
vn 0.593612 0.000000 0.804751
vn 0.591244 -0.806492 0.000000
vn 0.591244 -0.806492 0.000000
vn 0.591244 -0.806493 0.000000
vn 0.591244 -0.806493 0.000000
vn 0.593618 0.000000 -0.804747
vn 0.593617 0.000000 -0.804747
vn 0.593618 0.000000 -0.804747
vn 0.593617 0.000000 -0.804747
s off
g pCube4
usemtl initialShadingGroup
f 26/35/1 25/36/2 27/37/3 28/38/4
s 1
f 7/4/5 1/20/6 3/24/7 5/5/8
s off
f 9/6/9 10/17/10 21/15/11 22/31/12
f 10/7/13 9/19/14 12/23/15 11/11/16
f 11/11/17 12/23/18 18/27/19 17/13/20
f 13/8/21 14/34/22 23/29/23 24/16/24
f 14/9/25 13/10/26 16/12/27 15/21/28
f 15/21/29 16/12/30 20/14/31 19/25/32
f 17/13/33 18/27/34 22/31/35 21/15/36
f 19/25/37 20/14/38 24/16/39 23/29/40
f 13/10/41 10/7/42 11/11/43 16/12/44
f 16/12/45 11/11/46 17/13/47 20/14/48
f 20/14/49 17/13/50 21/15/51 24/16/52
f 24/16/53 21/15/54 10/17/55 13/8/56
s 2
f 2/1/57 4/18/58 12/23/59 9/19/60
s 1
f 3/24/7 1/20/6 14/9/61 15/21/62
s 2
f 4/18/58 6/22/63 18/27/64 12/23/59
s 1
f 5/28/8 3/24/7 15/21/62 19/25/65
s 2
f 6/22/63 8/26/66 22/31/67 18/27/64
s 1
f 7/33/5 5/28/8 19/25/65 23/29/68
s 2
f 8/26/66 2/30/57 9/6/60 22/31/67
s 1
f 1/32/6 7/33/5 23/29/68 14/34/61
s off
f 2/1/69 8/2/70 25/36/71 26/35/72
f 8/2/73 6/3/74 27/37/75 25/36/76
f 6/3/77 4/18/78 28/38/79 27/37/80
f 4/18/81 2/1/82 26/35/83 28/38/84
