# This file uses centimeters as units for non-parametric coordinates.

mtllib painting_long.mtl
g default
v -2.661653 2.034559 1.451935
v -2.437560 2.034559 1.451935
v -2.661653 4.886216 1.451935
v -2.437560 4.886216 1.451935
v -2.661653 4.886216 0.144513
v -2.437560 4.886216 0.144513
v -2.661653 2.034559 0.144513
v -2.437560 2.034559 0.144513
v -2.392616 1.748599 1.583041
v -2.455291 1.547400 1.675286
v -2.455291 5.373374 1.675286
v -2.392617 5.172175 1.583041
v -2.643921 1.547400 1.675286
v -2.706596 1.748599 1.583041
v -2.706596 5.172175 1.583041
v -2.643921 5.373374 1.675286
v -2.455291 5.373374 -0.078839
v -2.392616 5.172176 0.013406
v -2.706596 5.172176 0.013406
v -2.643921 5.373374 -0.078839
v -2.455291 1.547400 -0.078839
v -2.392616 1.748599 0.013406
v -2.706596 1.748599 0.013406
v -2.643921 1.547400 -0.078839
v -2.467101 2.082087 0.166303
v -2.467101 2.082087 1.430145
v -2.467101 4.838689 0.166303
v -2.467101 4.838689 1.430145
vt 0.625000 0.000000
vt 0.875000 0.000000
vt 0.875000 0.250000
vt 0.125000 0.000000
vt 0.125000 0.250000
vt 0.625000 1.000000
vt 0.562506 0.000000
vt 0.437494 1.000000
vt 0.375000 0.000000
vt 0.437494 0.000000
vt 0.562506 0.250000
vt 0.437494 0.250000
vt 0.562506 0.500000
vt 0.437494 0.500000
vt 0.562506 0.750000
vt 0.437494 0.750000
vt 0.562506 1.000000
vt 0.625000 0.250000
vt 0.625000 0.000000
vt 0.375000 0.000000
vt 0.375000 0.250000
vt 0.625000 0.500000
vt 0.625000 0.250000
vt 0.375000 0.250000
vt 0.375000 0.500000
vt 0.625000 0.750000
vt 0.625000 0.500000
vt 0.375000 0.500000
vt 0.375000 0.750000
vt 0.625000 1.000000
vt 0.625000 0.750000
vt 0.375000 1.000000
vt 0.375000 0.750000
vt 0.375000 1.000000
vt 0.625000 0.000000
vt 0.875000 0.000000
vt 0.875000 0.250000
vt 0.625000 0.250000
vn 1.000000 0.000000 0.000000
vn 1.000000 0.000000 0.000000
vn 1.000000 0.000000 0.000000
vn 1.000000 0.000000 0.000000
vn -0.999152 0.017163 0.037435
vn -0.999152 0.017163 -0.037435
vn -0.999152 -0.017163 -0.037435
vn -0.999152 -0.017163 0.037435
vn 0.954750 -0.297410 0.000000
vn 0.954750 -0.297410 0.000000
vn 0.954750 -0.297410 0.000000
vn 0.954750 -0.297410 0.000000
vn 0.827142 0.000000 0.561994
vn 0.827142 0.000000 0.561994
vn 0.827142 0.000000 0.561994
vn 0.827142 0.000000 0.561994
vn 0.954750 0.297411 0.000000
vn 0.954750 0.297411 0.000000
vn 0.954750 0.297411 0.000000
vn 0.954750 0.297411 0.000000
vn -0.954750 -0.297411 0.000000
vn -0.954750 -0.297411 0.000000
vn -0.954750 -0.297411 0.000000
vn -0.954750 -0.297411 0.000000
vn -0.827141 0.000000 0.561994
vn -0.827141 0.000000 0.561994
vn -0.827141 0.000000 0.561994
vn -0.827141 0.000000 0.561994
vn -0.954749 0.297412 0.000000
vn -0.954749 0.297412 0.000000
vn -0.954749 0.297412 0.000000
vn -0.954749 0.297412 0.000000
vn 0.827143 -0.000000 -0.561991
vn 0.827143 -0.000000 -0.561991
vn 0.827143 -0.000000 -0.561991
vn 0.827143 -0.000000 -0.561991
vn -0.827143 0.000000 -0.561992
vn -0.827143 0.000000 -0.561992
vn -0.827143 0.000000 -0.561992
vn -0.827143 0.000000 -0.561992
vn 0.000000 0.000000 1.000000
vn 0.000000 0.000000 1.000000
vn 0.000000 0.000000 1.000000
vn 0.000000 0.000000 1.000000
vn 0.000000 1.000000 0.000000
vn 0.000000 1.000000 0.000000
vn 0.000000 1.000000 0.000000
vn 0.000000 1.000000 0.000000
vn 0.000000 0.000000 -1.000000
vn 0.000000 0.000000 -1.000000
vn 0.000000 0.000000 -1.000000
vn 0.000000 0.000000 -1.000000
vn 0.000000 -1.000000 0.000000
vn 0.000000 -1.000000 0.000000
vn 0.000000 -1.000000 0.000000
vn 0.000000 -1.000000 0.000000
vn 0.982684 0.077223 -0.168433
vn 0.982683 -0.077223 -0.168433
vn 0.982684 -0.077223 -0.168433
vn 0.982684 0.077223 -0.168433
vn -0.982684 0.077223 -0.168431
vn -0.982684 -0.077223 -0.168432
vn 0.982684 -0.077223 0.168433
vn 0.982684 -0.077223 0.168433
vn -0.982684 -0.077222 0.168432
vn 0.982683 0.077223 0.168433
vn 0.982684 0.077223 0.168433
vn -0.982684 0.077222 0.168432
vn 0.849315 0.527887 0.000000
vn 0.849315 0.527887 0.000000
vn 0.849315 0.527887 0.000000
vn 0.849315 0.527887 0.000000
vn 0.593612 0.000000 0.804751
vn 0.593612 0.000000 0.804751
vn 0.593612 0.000000 0.804751
vn 0.593612 0.000000 0.804751
vn 0.849311 -0.527893 0.000000
vn 0.849311 -0.527893 0.000000
vn 0.849311 -0.527893 0.000000
vn 0.849311 -0.527893 0.000000
vn 0.593618 0.000000 -0.804747
vn 0.593617 0.000000 -0.804747
vn 0.593618 0.000000 -0.804747
vn 0.593617 0.000000 -0.804747
s off
g pCube3
usemtl initialShadingGroup
f 26/35/1 25/36/2 27/37/3 28/38/4
s 1
f 7/4/5 1/20/6 3/24/7 5/5/8
s off
f 9/6/9 10/17/10 21/15/11 22/31/12
f 10/7/13 9/19/14 12/23/15 11/11/16
f 11/11/17 12/23/18 18/27/19 17/13/20
f 13/8/21 14/34/22 23/29/23 24/16/24
f 14/9/25 13/10/26 16/12/27 15/21/28
f 15/21/29 16/12/30 20/14/31 19/25/32
f 17/13/33 18/27/34 22/31/35 21/15/36
f 19/25/37 20/14/38 24/16/39 23/29/40
f 13/10/41 10/7/42 11/11/43 16/12/44
f 16/12/45 11/11/46 17/13/47 20/14/48
f 20/14/49 17/13/50 21/15/51 24/16/52
f 24/16/53 21/15/54 10/17/55 13/8/56
s 2
f 2/1/57 4/18/58 12/23/59 9/19/60
s 1
f 3/24/7 1/20/6 14/9/61 15/21/62
s 2
f 4/18/58 6/22/63 18/27/64 12/23/59
s 1
f 5/28/8 3/24/7 15/21/62 19/25/65
s 2
f 6/22/63 8/26/66 22/31/67 18/27/64
s 1
f 7/33/5 5/28/8 19/25/65 23/29/68
s 2
f 8/26/66 2/30/57 9/6/60 22/31/67
s 1
f 1/32/6 7/33/5 23/29/68 14/34/61
s off
f 2/1/69 8/2/70 25/36/71 26/35/72
f 8/2/73 6/3/74 27/37/75 25/36/76
f 6/3/77 4/18/78 28/38/79 27/37/80
f 4/18/81 2/1/82 26/35/83 28/38/84
