# This file uses centimeters as units for non-parametric coordinates.

mtllib painting_small.mtl
g default
v -2.661653 4.114100 3.771222
v -2.437560 4.114100 3.771222
v -2.661653 4.114100 2.471823
v -2.437560 4.114100 2.471823
v -2.661653 2.806677 2.471823
v -2.437560 2.806677 2.471823
v -2.661653 2.806677 3.771222
v -2.437560 2.806677 3.771222
v -2.392616 4.245206 3.901524
v -2.455291 4.337450 3.993204
v -2.455291 4.337450 2.249842
v -2.392617 4.245206 2.341522
v -2.643921 4.337450 3.993204
v -2.706596 4.245206 3.901524
v -2.706596 4.245206 2.341522
v -2.643921 4.337450 2.249842
v -2.455291 2.583326 2.249842
v -2.392616 2.675571 2.341521
v -2.706596 2.675571 2.341521
v -2.643921 2.583326 2.249842
v -2.455291 2.583326 3.993204
v -2.392616 2.675571 3.901524
v -2.706596 2.675571 3.901524
v -2.643921 2.583326 3.993204
v -2.467101 2.828467 3.749566
v -2.467101 4.092309 3.749566
v -2.467101 2.828467 2.493479
v -2.467101 4.092309 2.493479
vt 0.070780 0.428792
vt 0.070780 0.071328
vt 0.426050 0.071328
vt 0.426050 0.428792
vt 0.064654 0.434955
vt 0.064654 0.065165
vt 0.432175 0.065165
vt 0.432175 0.434955
vt 0.027800 0.472037
vt 0.027800 0.028083
vt 0.469030 0.028083
vt 0.469030 0.472037
vt 0.001869 0.498127
vt 0.001869 0.001992
vt 0.494960 0.001992
vt 0.494960 0.498127
vt 0.506261 0.934835
vt 0.506261 0.565045
vt 0.873782 0.565045
vt 0.873782 0.934835
vt 0.469406 0.971917
vt 0.469406 0.527963
vt 0.910636 0.527963
vt 0.910636 0.971917
vt 0.443476 0.501873
vt 0.443476 0.998008
vt 0.936567 0.501873
vt 0.936567 0.998008
vt 0.384366 0.501873
vt 0.437718 0.501873
vt 0.437718 0.998008
vt 0.384366 0.998008
vt 0.325257 0.501873
vt 0.378609 0.501873
vt 0.378609 0.998008
vt 0.325257 0.998008
vt 0.266147 0.501873
vt 0.319499 0.501873
vt 0.319499 0.994964
vt 0.266147 0.994964
vt 0.207038 0.501873
vt 0.260390 0.501873
vt 0.260390 0.994964
vt 0.207038 0.994964
vn 1.000000 0.000000 0.000000
vn 1.000000 0.000000 0.000000
vn 1.000000 0.000000 0.000000
vn 1.000000 0.000000 0.000000
vn -0.998591 0.037414 -0.037645
vn -0.998591 -0.037414 -0.037645
vn -0.998591 -0.037414 0.037645
vn -0.998591 0.037414 0.037645
vn 0.825531 -0.000000 0.564357
vn 0.825531 -0.000000 0.564357
vn 0.825531 -0.000000 0.564357
vn 0.825531 -0.000000 0.564357
vn 0.827142 0.561994 0.000000
vn 0.827142 0.561994 0.000000
vn 0.827142 0.561994 0.000000
vn 0.827142 0.561994 0.000000
vn 0.825530 0.000000 -0.564358
vn 0.825530 0.000000 -0.564358
vn 0.825530 0.000000 -0.564358
vn 0.825530 0.000000 -0.564358
vn -0.825530 -0.000000 0.564358
vn -0.825530 -0.000000 0.564358
vn -0.825530 -0.000000 0.564358
vn -0.825530 -0.000000 0.564358
vn -0.827141 0.561994 0.000000
vn -0.827141 0.561994 0.000000
vn -0.827141 0.561994 0.000000
vn -0.827141 0.561994 0.000000
vn -0.825529 0.000000 -0.564359
vn -0.825529 0.000000 -0.564359
vn -0.825529 0.000000 -0.564359
vn -0.825529 0.000000 -0.564359
vn 0.827143 -0.561991 -0.000000
vn 0.827143 -0.561991 -0.000000
vn 0.827143 -0.561991 -0.000000
vn 0.827143 -0.561991 -0.000000
vn -0.827143 -0.561992 -0.000000
vn -0.827143 -0.561992 -0.000000
vn -0.827143 -0.561992 -0.000000
vn -0.827143 -0.561992 -0.000000
vn 0.000000 1.000000 0.000000
vn 0.000000 1.000000 0.000000
vn 0.000000 1.000000 0.000000
vn 0.000000 1.000000 0.000000
vn 0.000000 0.000000 -1.000000
vn 0.000000 0.000000 -1.000000
vn 0.000000 0.000000 -1.000000
vn 0.000000 0.000000 -1.000000
vn 0.000000 -1.000000 -0.000000
vn 0.000000 -1.000000 -0.000000
vn 0.000000 -1.000000 -0.000000
vn 0.000000 -1.000000 -0.000000
vn 0.000000 -0.000000 1.000000
vn 0.000000 -0.000000 1.000000
vn 0.000000 -0.000000 1.000000
vn 0.000000 -0.000000 1.000000
vn 0.971689 -0.166549 -0.167577
vn 0.971689 -0.166549 0.167577
vn 0.971689 -0.166549 0.167577
vn 0.971689 -0.166548 -0.167577
vn -0.998591 -0.037414 0.037645
vn -0.998591 -0.037414 -0.037645
vn -0.971689 -0.166547 -0.167576
vn -0.971689 -0.166547 0.167576
vn 0.971689 -0.166549 0.167577
vn 0.971689 0.166549 0.167576
vn 0.971689 0.166549 0.167576
vn 0.971689 -0.166549 0.167577
vn -0.998591 0.037414 0.037645
vn -0.998591 -0.037414 0.037645
vn -0.971689 -0.166547 0.167576
vn -0.971689 0.166548 0.167576
vn 0.971689 0.166549 0.167576
vn 0.971689 0.166549 -0.167577
vn 0.971689 0.166549 -0.167577
vn 0.971689 0.166549 0.167576
vn -0.998591 0.037414 -0.037645
vn -0.998591 0.037414 0.037645
vn -0.971689 0.166548 0.167576
vn -0.971689 0.166548 -0.167576
vn 0.971689 0.166549 -0.167577
vn 0.971689 -0.166549 -0.167577
vn 0.971689 -0.166548 -0.167577
vn 0.971689 0.166549 -0.167577
vn -0.998591 -0.037414 -0.037645
vn -0.998591 0.037414 -0.037645
vn -0.971689 0.166548 -0.167576
vn -0.971689 -0.166547 -0.167576
vn 0.591251 0.000000 -0.806488
vn 0.591251 0.000000 -0.806488
vn 0.591251 0.000000 -0.806488
vn 0.591251 0.000000 -0.806488
vn 0.593612 0.804751 0.000000
vn 0.593612 0.804751 0.000000
vn 0.593612 0.804751 0.000000
vn 0.593612 0.804751 0.000000
vn 0.591244 -0.000000 0.806492
vn 0.591244 -0.000000 0.806492
vn 0.591244 -0.000000 0.806493
vn 0.591244 -0.000000 0.806493
vn 0.593618 -0.804747 -0.000000
vn 0.593617 -0.804747 -0.000000
vn 0.593618 -0.804747 -0.000000
vn 0.593617 -0.804747 -0.000000
s off
g pCube4
usemtl lambert3SG
f 26/1/1 25/2/2 27/3/3 28/4/4
f 7/17/5 1/18/6 3/19/7 5/20/8
f 9/9/9 10/13/10 21/14/11 22/10/12
f 10/13/13 9/9/14 12/12/15 11/16/16
f 11/16/17 12/12/18 18/11/19 17/15/20
f 13/25/21 14/22/22 23/21/23 24/26/24
f 14/22/25 13/25/26 16/27/27 15/23/28
f 15/23/29 16/27/30 20/28/31 19/24/32
f 17/15/33 18/11/34 22/10/35 21/14/36
f 19/24/37 20/28/38 24/26/39 23/21/40
f 13/37/41 10/38/42 11/39/43 16/40/44
f 16/29/45 11/30/46 17/31/47 20/32/48
f 20/41/49 17/42/50 21/43/51 24/44/52
f 24/33/53 21/34/54 10/35/55 13/36/56
f 2/5/57 4/8/58 12/12/59 9/9/60
f 3/19/61 1/18/62 14/22/63 15/23/64
f 4/8/65 6/7/66 18/11/67 12/12/68
f 5/20/69 3/19/70 15/23/71 19/24/72
f 6/7/73 8/6/74 22/10/75 18/11/76
f 7/17/77 5/20/78 19/24/79 23/21/80
f 8/6/81 2/5/82 9/9/83 22/10/84
f 1/18/85 7/17/86 23/21/87 14/22/88
f 2/5/89 8/6/90 25/2/91 26/1/92
f 8/6/93 6/7/94 27/3/95 25/2/96
f 6/7/97 4/8/98 28/4/99 27/3/100
f 4/8/101 2/5/102 26/1/103 28/4/104
