# This file uses centimeters as units for non-parametric coordinates.

mtllib painting_large.mtl
g default
v -2.344534 2.123649 -11.632346
v -2.344534 2.123649 -11.486083
v -2.344534 4.797126 -11.632346
v -2.344534 4.797126 -11.486083
v 2.157769 4.797126 -11.632346
v 2.157769 4.797126 -11.486083
v 2.157769 2.123649 -11.632346
v 2.157769 2.123649 -11.486083
v -2.796016 1.855556 -11.461239
v -3.113673 1.666929 -11.495884
v -3.113673 5.253845 -11.495884
v -2.796016 5.065218 -11.461240
v -3.113673 1.666929 -11.622545
v -2.796016 1.855556 -11.657189
v -2.796016 5.065218 -11.657189
v -3.113673 5.253845 -11.622545
v 2.926913 5.253845 -11.495884
v 2.609253 5.065219 -11.461239
v 2.609253 5.065219 -11.657189
v 2.926913 5.253845 -11.622545
v 2.926913 1.666929 -11.495884
v 2.609253 1.855556 -11.461239
v 2.609253 1.855556 -11.657189
v 2.926913 1.666929 -11.622545
v 2.082732 2.168206 -11.502411
v -2.269496 2.168206 -11.502411
v 2.082732 4.752569 -11.502411
v -2.269496 4.752569 -11.502411
v 2.120250 2.145927 -11.576329
v -2.307015 2.145927 -11.576329
v -2.307015 4.774847 -11.576329
v 2.120250 4.774847 -11.576329
vt 0.625000 0.000000
vt 0.875000 0.000000
vt 0.875000 0.250000
vt 0.125000 0.000000
vt 0.125000 0.250000
vt 0.625000 1.000000
vt 0.562506 0.000000
vt 0.437494 1.000000
vt 0.375000 0.000000
vt 0.437494 0.000000
vt 0.562506 0.250000
vt 0.437494 0.250000
vt 0.562506 0.500000
vt 0.437494 0.500000
vt 0.562506 0.750000
vt 0.437494 0.750000
vt 0.562506 1.000000
vt 0.625000 0.250000
vt 0.625000 0.000000
vt 0.375000 0.000000
vt 0.375000 0.250000
vt 0.625000 0.500000
vt 0.625000 0.250000
vt 0.375000 0.250000
vt 0.375000 0.500000
vt 0.625000 0.750000
vt 0.625000 0.500000
vt 0.375000 0.500000
vt 0.375000 0.750000
vt 0.625000 1.000000
vt 0.625000 0.750000
vt 0.375000 1.000000
vt 0.375000 0.750000
vt 0.375000 1.000000
vt 0.625000 0.000000
vt 0.875000 0.000000
vt 0.875000 0.250000
vt 0.625000 0.250000
vt 0.125000 0.000000
vt 0.375000 0.000000
vt 0.375000 0.250000
vt 0.125000 0.250000
vn 0.000000 0.000000 1.000000
vn 0.000000 0.000000 1.000000
vn 0.000000 0.000000 1.000000
vn 0.000000 0.000000 1.000000
vn -0.000000 0.000000 -1.000000
vn -0.000000 0.000000 -1.000000
vn -0.000000 0.000000 -1.000000
vn -0.000000 0.000000 -1.000000
vn -0.000000 -0.180648 0.983548
vn -0.000000 -0.180648 0.983548
vn -0.000000 -0.180648 0.983548
vn -0.000000 -0.180648 0.983548
vn -0.108420 0.000000 0.994105
vn -0.108420 0.000000 0.994105
vn -0.108420 0.000000 0.994105
vn -0.108420 0.000000 0.994105
vn -0.000000 0.180646 0.983548
vn -0.000000 0.180646 0.983548
vn -0.000000 0.180646 0.983548
vn -0.000000 0.180646 0.983548
vn -0.000000 -0.180643 -0.983549
vn -0.000000 -0.180643 -0.983549
vn -0.000000 -0.180643 -0.983549
vn -0.000000 -0.180643 -0.983549
vn -0.108419 0.000000 -0.994105
vn -0.108419 0.000000 -0.994105
vn -0.108419 0.000000 -0.994105
vn -0.108419 0.000000 -0.994105
vn -0.000000 0.180644 -0.983549
vn -0.000000 0.180644 -0.983549
vn -0.000000 0.180644 -0.983549
vn -0.000000 0.180644 -0.983549
vn 0.108421 0.000000 0.994105
vn 0.108421 0.000000 0.994105
vn 0.108421 0.000000 0.994105
vn 0.108421 0.000000 0.994105
vn 0.108418 0.000000 -0.994105
vn 0.108418 0.000000 -0.994105
vn 0.108418 0.000000 -0.994105
vn 0.108418 0.000000 -0.994105
vn -1.000000 0.000000 0.000000
vn -1.000000 0.000000 0.000000
vn -1.000000 0.000000 0.000000
vn -1.000000 0.000000 0.000000
vn 0.000000 1.000000 0.000000
vn 0.000000 1.000000 0.000000
vn 0.000000 1.000000 0.000000
vn 0.000000 1.000000 0.000000
vn 1.000000 0.000000 -0.000000
vn 1.000000 0.000000 -0.000000
vn 1.000000 0.000000 -0.000000
vn 1.000000 0.000000 -0.000000
vn 0.000000 -1.000000 0.000000
vn 0.000000 -1.000000 0.000000
vn 0.000000 -1.000000 0.000000
vn 0.000000 -1.000000 0.000000
vn 0.027473 0.046268 0.998551
vn 0.027473 -0.046267 0.998551
vn 0.027473 -0.046267 0.998551
vn 0.027473 0.046268 0.998551
vn 0.027474 -0.046267 -0.998551
vn 0.027474 0.046267 -0.998551
vn 0.027474 0.046268 -0.998551
vn 0.027474 -0.046268 -0.998551
vn -0.027474 -0.046266 0.998551
vn -0.027474 -0.046266 0.998551
vn -0.027474 -0.046267 -0.998551
vn -0.027474 -0.046267 -0.998551
vn -0.027474 0.046267 0.998551
vn -0.027474 0.046267 0.998551
vn -0.027474 0.046267 -0.998551
vn -0.027474 0.046267 -0.998551
vn 0.000000 0.344087 0.938938
vn 0.000000 0.344087 0.938938
vn 0.000000 0.344087 0.938938
vn 0.000000 0.344087 0.938938
vn -0.212633 0.000000 0.977132
vn -0.212633 0.000000 0.977132
vn -0.212633 0.000000 0.977132
vn -0.212633 0.000000 0.977132
vn 0.000000 -0.344093 0.938936
vn 0.000000 -0.344093 0.938936
vn 0.000000 -0.344093 0.938936
vn 0.000000 -0.344093 0.938936
vn 0.212630 0.000000 0.977133
vn 0.212630 0.000000 0.977133
vn 0.212630 0.000000 0.977133
vn 0.212630 0.000000 0.977133
vn -0.000000 0.929207 -0.369560
vn -0.000000 0.929207 -0.369560
vn -0.000000 0.929207 -0.369560
vn -0.000000 0.929207 -0.369560
vn 0.830853 0.000000 -0.556491
vn 0.830853 0.000000 -0.556491
vn 0.830853 0.000000 -0.556491
vn 0.830853 0.000000 -0.556491
vn -0.000000 -0.929206 -0.369561
vn -0.000000 -0.929206 -0.369561
vn -0.000000 -0.929206 -0.369561
vn -0.000000 -0.929206 -0.369561
vn -0.830853 0.000000 -0.556491
vn -0.830853 0.000000 -0.556491
vn -0.830854 0.000000 -0.556491
vn -0.830854 0.000000 -0.556491
s off
g pCube6
usemtl initialShadingGroup
f 26/35/1 25/36/2 27/37/3 28/38/4
f 29/39/5 30/40/6 31/41/7 32/42/8
f 9/6/9 10/17/10 21/15/11 22/31/12
f 10/7/13 9/19/14 12/23/15 11/11/16
f 11/11/17 12/23/18 18/27/19 17/13/20
f 13/8/21 14/34/22 23/29/23 24/16/24
f 14/9/25 13/10/26 16/12/27 15/21/28
f 15/21/29 16/12/30 20/14/31 19/25/32
f 17/13/33 18/27/34 22/31/35 21/15/36
f 19/25/37 20/14/38 24/16/39 23/29/40
f 13/10/41 10/7/42 11/11/43 16/12/44
f 16/12/45 11/11/46 17/13/47 20/14/48
f 20/14/49 17/13/50 21/15/51 24/16/52
f 24/16/53 21/15/54 10/17/55 13/8/56
s 1
f 2/1/57 4/18/58 12/23/59 9/19/60
s 2
f 3/24/61 1/20/62 14/9/63 15/21/64
s 1
f 4/18/58 6/22/65 18/27/66 12/23/59
s 2
f 5/28/67 3/24/61 15/21/64 19/25/68
s 1
f 6/22/65 8/26/69 22/31/70 18/27/66
s 2
f 7/33/71 5/28/67 19/25/68 23/29/72
s 1
f 8/26/69 2/30/57 9/6/60 22/31/70
s 2
f 1/32/62 7/33/71 23/29/72 14/34/63
s off
f 2/1/73 8/2/74 25/36/75 26/35/76
f 8/2/77 6/3/78 27/37/79 25/36/80
f 6/3/81 4/18/82 28/38/83 27/37/84
f 4/18/85 2/1/86 26/35/87 28/38/88
f 7/4/89 1/20/90 30/40/91 29/39/92
f 1/20/93 3/24/94 31/41/95 30/40/96
f 3/24/97 5/5/98 32/42/99 31/41/100
f 5/5/101 7/4/102 29/39/103 32/42/104
